# xmcd
#
# Track frame offsets:
#	150
#	14842
#	30535
#	45456
#	59272
#	73183
#	87714
#	104963
#	121259
#	139824
#	160030
#	178048
#	195791
#	209341
#	225227
#	227637
#
# Disc length: 3064 seconds
#
# Revision: 0
# Processed by: cddbd v1.5.2PL0 Copyright (c) Steve Scherf et al.
# Submitted via: audiograbber 1.83.01
#
DISCID=dc0bf610
DTITLE=Various Artist - CDX 598
DYEAR=2014
DGENRE=Country
TTITLE0=John Hyde - Get It On
TTITLE1=Dolly Parton - Home
TTITLE2=Sam Hunt - Leave The Night On
TTITLE3=Craig Morgan - Well Come Back Around (Alternate Lyrics Version
TTITLE4=Craig Morgan - We'll Come Back Around (Album Version
TTITLE5=Mary Sarah w. Merle Haggard - Fightin' Side Of Me
TTITLE6=Debbie Cochran - Everything Changes
TTITLE7=Taria - Who's Cryin' Now
TTITLE8=Steve Everett - 50 Shades Of Cowboy
TTITLE9=Jeremy Starkel - Burn
TTITLE10=Madeline Smith - Catchin 'Fireflies
TTITLE11=Gator Park - Hayseed Highway
TTITLE12=Cerrito - Manana The Pajama Song
TTITLE13=Gracia Harrison - Jezebel
TTITLE14=Official White House Boys - Official White House Boys (PSA one
TTITLE15=Official White House Boys - Official White House Boys (PSA two
EXTD=
EXTT0=
EXTT1=
EXTT2=
EXTT3=
EXTT4=
EXTT5=
EXTT6=
EXTT7=
EXTT8=
EXTT9=
EXTT10=
EXTT11=
EXTT12=
EXTT13=
EXTT14=
EXTT15=
PLAYORDER=
